<svg width="24" height="22" viewBox="0 0 24 22" fill="none" xmlns="http://www.w3.org/2000/svg">
<path d="M1 1.0081L3.61807 1.00179C4.05976 1.00073 4.44983 1.28958 4.57768 1.71236C4.68548 2.06885 4.79025 2.41531 4.89244 2.75325M4.89244 2.75325H5.5741H21.6215C22.3015 2.75325 22.7832 3.41726 22.5721 4.06365L20.2058 11.3104C20.0715 11.7217 19.6879 12 19.2552 12H6.86436M4.89244 2.75325L6.86436 12M6.86436 12L7.36945 15.1579C7.44704 15.6431 7.86558 16 8.3569 16H20" stroke="white" stroke-width="2"/>
<circle cx="1" cy="1" r="1" fill="white"/>
<circle cx="20" cy="16" r="1" fill="white"/>
<circle cx="7.75" cy="19.75" r="1.75" fill="white"/>
<circle cx="19.75" cy="19.75" r="1.75" fill="white"/>
</svg>
